solid OpenSCAD_Model
  facet normal 1 -0 0
    outer loop
      vertex 18 18 0
      vertex 18 80 -114
      vertex 18 80 0
    endloop
  endfacet
  facet normal 1 0 0
    outer loop
      vertex 18 80 -114
      vertex 18 18 0
      vertex 18 18 -114
    endloop
  endfacet
  facet normal 1 -0 0
    outer loop
      vertex 18 218 0
      vertex 18 382 -114
      vertex 18 382 0
    endloop
  endfacet
  facet normal 1 0 0
    outer loop
      vertex 18 382 -114
      vertex 18 218 0
      vertex 18 218 -114
    endloop
  endfacet
  facet normal 1 0 0
    outer loop
      vertex 18 197 0
      vertex 18 98 0
      vertex 18 197 -3
    endloop
  endfacet
  facet normal 1 -0 0
    outer loop
      vertex 18 197 -3
      vertex 18 200 -114
      vertex 18 200 -3
    endloop
  endfacet
  facet normal 1 0 0
    outer loop
      vertex 18 98 -114
      vertex 18 197 -3
      vertex 18 98 0
    endloop
  endfacet
  facet normal 1 0 0
    outer loop
      vertex 18 197 -3
      vertex 18 98 -114
      vertex 18 200 -114
    endloop
  endfacet
  facet normal 0 1 0
    outer loop
      vertex 320 400 0
      vertex 176.5 400 -36.5
      vertex 0 400 0
    endloop
  endfacet
  facet normal 0 1 0
    outer loop
      vertex 320 400 0
      vertex 215 400 -37.5
      vertex 176.5 400 -36.5
    endloop
  endfacet
  facet normal 0 1 0
    outer loop
      vertex 320 400 0
      vertex 215 400 -82.5
      vertex 215 400 -37.5
    endloop
  endfacet
  facet normal 0 1 0
    outer loop
      vertex 215 400 -82.5
      vertex 320 400 -120
      vertex 105 400 -82.5
    endloop
  endfacet
  facet normal 0 1 -0
    outer loop
      vertex 320 400 -120
      vertex 215 400 -82.5
      vertex 320 400 0
    endloop
  endfacet
  facet normal 0 1 -0
    outer loop
      vertex 143.5 400 -36.5
      vertex 0 400 0
      vertex 176.5 400 -36.5
    endloop
  endfacet
  facet normal 0 1 0
    outer loop
      vertex 105 400 -37.5
      vertex 143.5 400 -36.5
      vertex 143.5 400 -37.5
    endloop
  endfacet
  facet normal 0 1 0
    outer loop
      vertex 143.5 400 -36.5
      vertex 105 400 -37.5
      vertex 0 400 0
    endloop
  endfacet
  facet normal 0 1 -0
    outer loop
      vertex 105 400 -82.5
      vertex 0 400 0
      vertex 105 400 -37.5
    endloop
  endfacet
  facet normal 0 1 0
    outer loop
      vertex 105 400 -82.5
      vertex 0 400 -120
      vertex 0 400 0
    endloop
  endfacet
  facet normal 0 1 0
    outer loop
      vertex 0 400 -120
      vertex 105 400 -82.5
      vertex 320 400 -120
    endloop
  endfacet
  facet normal 0 1 0
    outer loop
      vertex 176.5 400 -36.5
      vertex 215 400 -37.5
      vertex 176.5 400 -37.5
    endloop
  endfacet
  facet normal 0 -1 0
    outer loop
      vertex 0 0 -120
      vertex 320 0 0
      vertex 0 0 0
    endloop
  endfacet
  facet normal 0 -1 -0
    outer loop
      vertex 320 0 0
      vertex 0 0 -120
      vertex 320 0 -120
    endloop
  endfacet
  facet normal -1 0 0
    outer loop
      vertex 0 0 -120
      vertex 0 400 0
      vertex 0 400 -120
    endloop
  endfacet
  facet normal -1 -0 0
    outer loop
      vertex 0 400 0
      vertex 0 0 -120
      vertex 0 0 0
    endloop
  endfacet
  facet normal 0 0 -1
    outer loop
      vertex 320 0 -120
      vertex 26 23 -120
      vertex 320 23 -120
    endloop
  endfacet
  facet normal -0 0 -1
    outer loop
      vertex 26 23 -120
      vertex 0 0 -120
      vertex 26 37 -120
    endloop
  endfacet
  facet normal 0 0 -1
    outer loop
      vertex 0 0 -120
      vertex 26 23 -120
      vertex 320 0 -120
    endloop
  endfacet
  facet normal 0 0 -1
    outer loop
      vertex 26 37 -120
      vertex 320 400 -120
      vertex 320 37 -120
    endloop
  endfacet
  facet normal 0 0 -1
    outer loop
      vertex 26 37 -120
      vertex 0 400 -120
      vertex 320 400 -120
    endloop
  endfacet
  facet normal 0 0 -1
    outer loop
      vertex 0 400 -120
      vertex 26 37 -120
      vertex 0 0 -120
    endloop
  endfacet
  facet normal -0 0 1
    outer loop
      vertex 18 98 0
      vertex 302 80 0
      vertex 302 98 0
    endloop
  endfacet
  facet normal 0 0 1
    outer loop
      vertex 302 80 0
      vertex 18 98 0
      vertex 18 80 0
    endloop
  endfacet
  facet normal -0 0 1
    outer loop
      vertex 18 218 0
      vertex 302 197 0
      vertex 302 218 0
    endloop
  endfacet
  facet normal 0 0 1
    outer loop
      vertex 302 197 0
      vertex 18 218 0
      vertex 18 197 0
    endloop
  endfacet
  facet normal 0 0 1
    outer loop
      vertex 302 218 0
      vertex 320 400 0
      vertex 302 382 0
    endloop
  endfacet
  facet normal 0 0 1
    outer loop
      vertex 320 400 0
      vertex 18 382 0
      vertex 302 382 0
    endloop
  endfacet
  facet normal 0 0 1
    outer loop
      vertex 0 400 0
      vertex 18 218 0
      vertex 18 382 0
    endloop
  endfacet
  facet normal 0 0 1
    outer loop
      vertex 18 218 0
      vertex 0 400 0
      vertex 18 197 0
    endloop
  endfacet
  facet normal 0 0 1
    outer loop
      vertex 0 0 0
      vertex 18 197 0
      vertex 0 400 0
    endloop
  endfacet
  facet normal 0 0 1
    outer loop
      vertex 18 197 0
      vertex 0 0 0
      vertex 18 98 0
    endloop
  endfacet
  facet normal 0 0 1
    outer loop
      vertex 18 98 0
      vertex 0 0 0
      vertex 18 80 0
    endloop
  endfacet
  facet normal -0 0 1
    outer loop
      vertex 0 400 0
      vertex 18 382 0
      vertex 320 400 0
    endloop
  endfacet
  facet normal 0 0 1
    outer loop
      vertex 320 400 0
      vertex 302 218 0
      vertex 320 37 0
    endloop
  endfacet
  facet normal -0 0 1
    outer loop
      vertex 302 197 0
      vertex 320 37 0
      vertex 302 218 0
    endloop
  endfacet
  facet normal -0 0 1
    outer loop
      vertex 302 98 0
      vertex 320 37 0
      vertex 302 197 0
    endloop
  endfacet
  facet normal -0 0 1
    outer loop
      vertex 302 80 0
      vertex 320 37 0
      vertex 302 98 0
    endloop
  endfacet
  facet normal 0 0 1
    outer loop
      vertex 320 37 0
      vertex 302 80 0
      vertex 302 37 0
    endloop
  endfacet
  facet normal 0 0 1
    outer loop
      vertex 302 18 0
      vertex 320 23 0
      vertex 302 23 0
    endloop
  endfacet
  facet normal 0 0 1
    outer loop
      vertex 320 23 0
      vertex 302 18 0
      vertex 320 0 0
    endloop
  endfacet
  facet normal -0 0 1
    outer loop
      vertex 18 18 0
      vertex 320 0 0
      vertex 302 18 0
    endloop
  endfacet
  facet normal 0 0 1
    outer loop
      vertex 18 18 0
      vertex 0 0 0
      vertex 320 0 0
    endloop
  endfacet
  facet normal 0 0 1
    outer loop
      vertex 18 80 0
      vertex 0 0 0
      vertex 18 18 0
    endloop
  endfacet
  facet normal 1 -0 0
    outer loop
      vertex 320 37 0
      vertex 320 400 -120
      vertex 320 400 0
    endloop
  endfacet
  facet normal 1 0 0
    outer loop
      vertex 320 400 -120
      vertex 320 37 0
      vertex 320 37 -120
    endloop
  endfacet
  facet normal 1 -0 0
    outer loop
      vertex 320 0 0
      vertex 320 23 -120
      vertex 320 23 0
    endloop
  endfacet
  facet normal 1 0 0
    outer loop
      vertex 320 23 -120
      vertex 320 0 0
      vertex 320 0 -120
    endloop
  endfacet
  facet normal -1 0 0
    outer loop
      vertex 302 18 -114
      vertex 302 23 0
      vertex 302 23 -114
    endloop
  endfacet
  facet normal -1 -0 0
    outer loop
      vertex 302 23 0
      vertex 302 18 -114
      vertex 302 18 0
    endloop
  endfacet
  facet normal -1 0 0
    outer loop
      vertex 302 218 -114
      vertex 302 382 0
      vertex 302 382 -114
    endloop
  endfacet
  facet normal -1 -0 0
    outer loop
      vertex 302 382 0
      vertex 302 218 -114
      vertex 302 218 0
    endloop
  endfacet
  facet normal -1 0 0
    outer loop
      vertex 302 200 -114
      vertex 302 197 -3
      vertex 302 200 -3
    endloop
  endfacet
  facet normal -1 0 0
    outer loop
      vertex 302 98 -114
      vertex 302 197 -3
      vertex 302 200 -114
    endloop
  endfacet
  facet normal -1 0 0
    outer loop
      vertex 302 98 0
      vertex 302 197 -3
      vertex 302 98 -114
    endloop
  endfacet
  facet normal -1 0 0
    outer loop
      vertex 302 197 -3
      vertex 302 98 0
      vertex 302 197 0
    endloop
  endfacet
  facet normal -1 0 0
    outer loop
      vertex 302 37 -114
      vertex 302 80 0
      vertex 302 80 -114
    endloop
  endfacet
  facet normal -1 -0 0
    outer loop
      vertex 302 80 0
      vertex 302 37 -114
      vertex 302 37 0
    endloop
  endfacet
  facet normal 0 1 -0
    outer loop
      vertex 302 18 -114
      vertex 18 18 0
      vertex 302 18 0
    endloop
  endfacet
  facet normal 0 1 0
    outer loop
      vertex 18 18 0
      vertex 302 18 -114
      vertex 18 18 -114
    endloop
  endfacet
  facet normal 0 -1 0
    outer loop
      vertex 18 382 0
      vertex 143.5 382 -36.5
      vertex 302 382 0
    endloop
  endfacet
  facet normal 0 -1 0
    outer loop
      vertex 18 382 0
      vertex 105 382 -37.5
      vertex 143.5 382 -36.5
    endloop
  endfacet
  facet normal 0 -1 0
    outer loop
      vertex 18 382 -114
      vertex 105 382 -37.5
      vertex 18 382 0
    endloop
  endfacet
  facet normal 0 -1 -0
    outer loop
      vertex 105 382 -82.5
      vertex 18 382 -114
      vertex 215 382 -82.5
    endloop
  endfacet
  facet normal 0 -1 -0
    outer loop
      vertex 105 382 -37.5
      vertex 18 382 -114
      vertex 105 382 -82.5
    endloop
  endfacet
  facet normal 0 -1 0
    outer loop
      vertex 176.5 382 -36.5
      vertex 302 382 0
      vertex 143.5 382 -36.5
    endloop
  endfacet
  facet normal 0 -1 0
    outer loop
      vertex 215 382 -37.5
      vertex 176.5 382 -36.5
      vertex 176.5 382 -37.5
    endloop
  endfacet
  facet normal 0 -1 0
    outer loop
      vertex 176.5 382 -36.5
      vertex 215 382 -37.5
      vertex 302 382 0
    endloop
  endfacet
  facet normal 0 -1 0
    outer loop
      vertex 302 382 -114
      vertex 215 382 -37.5
      vertex 215 382 -82.5
    endloop
  endfacet
  facet normal 0 -1 0
    outer loop
      vertex 215 382 -37.5
      vertex 302 382 -114
      vertex 302 382 0
    endloop
  endfacet
  facet normal 0 -1 0
    outer loop
      vertex 302 382 -114
      vertex 215 382 -82.5
      vertex 18 382 -114
    endloop
  endfacet
  facet normal 0 -1 -0
    outer loop
      vertex 143.5 382 -36.5
      vertex 105 382 -37.5
      vertex 143.5 382 -37.5
    endloop
  endfacet
  facet normal 0 0 1
    outer loop
      vertex 302 80 -114
      vertex 26 37 -114
      vertex 302 37 -114
    endloop
  endfacet
  facet normal 0 0 1
    outer loop
      vertex 18 18 -114
      vertex 26 37 -114
      vertex 18 80 -114
    endloop
  endfacet
  facet normal -0 0 1
    outer loop
      vertex 18 80 -114
      vertex 26 37 -114
      vertex 302 80 -114
    endloop
  endfacet
  facet normal -0 0 1
    outer loop
      vertex 26 23 -114
      vertex 302 18 -114
      vertex 302 23 -114
    endloop
  endfacet
  facet normal 0 0 1
    outer loop
      vertex 26 23 -114
      vertex 18 18 -114
      vertex 302 18 -114
    endloop
  endfacet
  facet normal 0 0 1
    outer loop
      vertex 26 37 -114
      vertex 18 18 -114
      vertex 26 23 -114
    endloop
  endfacet
  facet normal -0 0 1
    outer loop
      vertex 18 382 -114
      vertex 302 218 -114
      vertex 302 382 -114
    endloop
  endfacet
  facet normal 0 0 1
    outer loop
      vertex 302 218 -114
      vertex 18 382 -114
      vertex 18 218 -114
    endloop
  endfacet
  facet normal -0 0 1
    outer loop
      vertex 18 200 -114
      vertex 302 98 -114
      vertex 302 200 -114
    endloop
  endfacet
  facet normal 0 0 1
    outer loop
      vertex 302 98 -114
      vertex 18 200 -114
      vertex 18 98 -114
    endloop
  endfacet
  facet normal 0 1 -0
    outer loop
      vertex 302 218 -114
      vertex 18 218 0
      vertex 302 218 0
    endloop
  endfacet
  facet normal 0 1 0
    outer loop
      vertex 18 218 0
      vertex 302 218 -114
      vertex 18 218 -114
    endloop
  endfacet
  facet normal 0 -1 0
    outer loop
      vertex 18 200 -114
      vertex 302 200 -3
      vertex 18 200 -3
    endloop
  endfacet
  facet normal 0 -1 -0
    outer loop
      vertex 302 200 -3
      vertex 18 200 -114
      vertex 302 200 -114
    endloop
  endfacet
  facet normal 0 1 -0
    outer loop
      vertex 302 98 -114
      vertex 18 98 0
      vertex 302 98 0
    endloop
  endfacet
  facet normal 0 1 0
    outer loop
      vertex 18 98 0
      vertex 302 98 -114
      vertex 18 98 -114
    endloop
  endfacet
  facet normal 0 -1 0
    outer loop
      vertex 18 80 -114
      vertex 302 80 0
      vertex 18 80 0
    endloop
  endfacet
  facet normal 0 -1 -0
    outer loop
      vertex 302 80 0
      vertex 18 80 -114
      vertex 302 80 -114
    endloop
  endfacet
  facet normal 1 -0 0
    outer loop
      vertex 215 400 -37.5
      vertex 215 613 -82.5
      vertex 215 613 -37.5
    endloop
  endfacet
  facet normal 1 0 0
    outer loop
      vertex 215 613 -82.5
      vertex 215 400 -37.5
      vertex 215 400 -82.5
    endloop
  endfacet
  facet normal 1 -0 0
    outer loop
      vertex 215 223 -37.5
      vertex 215 382 -82.5
      vertex 215 382 -37.5
    endloop
  endfacet
  facet normal 1 0 0
    outer loop
      vertex 215 382 -82.5
      vertex 215 223 -37.5
      vertex 215 223 -82.5
    endloop
  endfacet
  facet normal 0 1 -0
    outer loop
      vertex 215 613 -82.5
      vertex 105 613 -37.5
      vertex 215 613 -37.5
    endloop
  endfacet
  facet normal 0 1 0
    outer loop
      vertex 105 613 -37.5
      vertex 215 613 -82.5
      vertex 105 613 -82.5
    endloop
  endfacet
  facet normal 0 -1 0
    outer loop
      vertex 105 223 -82.5
      vertex 215 223 -37.5
      vertex 105 223 -37.5
    endloop
  endfacet
  facet normal 0 -1 -0
    outer loop
      vertex 215 223 -37.5
      vertex 105 223 -82.5
      vertex 215 223 -82.5
    endloop
  endfacet
  facet normal -1 0 0
    outer loop
      vertex 105 400 -82.5
      vertex 105 613 -37.5
      vertex 105 613 -82.5
    endloop
  endfacet
  facet normal -1 -0 0
    outer loop
      vertex 105 613 -37.5
      vertex 105 400 -82.5
      vertex 105 400 -37.5
    endloop
  endfacet
  facet normal -1 0 0
    outer loop
      vertex 105 223 -82.5
      vertex 105 382 -37.5
      vertex 105 382 -82.5
    endloop
  endfacet
  facet normal -1 -0 0
    outer loop
      vertex 105 382 -37.5
      vertex 105 223 -82.5
      vertex 105 223 -37.5
    endloop
  endfacet
  facet normal 0 0 -1
    outer loop
      vertex 105 400 -82.5
      vertex 215 613 -82.5
      vertex 215 400 -82.5
    endloop
  endfacet
  facet normal -0 0 -1
    outer loop
      vertex 215 613 -82.5
      vertex 105 400 -82.5
      vertex 105 613 -82.5
    endloop
  endfacet
  facet normal 0 0 -1
    outer loop
      vertex 105 223 -82.5
      vertex 215 382 -82.5
      vertex 215 223 -82.5
    endloop
  endfacet
  facet normal -0 0 -1
    outer loop
      vertex 215 382 -82.5
      vertex 105 223 -82.5
      vertex 105 382 -82.5
    endloop
  endfacet
  facet normal 0 0 1
    outer loop
      vertex 215 613 -37.5
      vertex 176.5 574 -37.5
      vertex 215 400 -37.5
    endloop
  endfacet
  facet normal 0 0 1
    outer loop
      vertex 215 613 -37.5
      vertex 143.5 574 -37.5
      vertex 176.5 574 -37.5
    endloop
  endfacet
  facet normal -0 0 1
    outer loop
      vertex 105 613 -37.5
      vertex 143.5 574 -37.5
      vertex 215 613 -37.5
    endloop
  endfacet
  facet normal 0 0 1
    outer loop
      vertex 105 400 -37.5
      vertex 143.5 574 -37.5
      vertex 105 613 -37.5
    endloop
  endfacet
  facet normal 0 0 1
    outer loop
      vertex 143.5 574 -37.5
      vertex 105 400 -37.5
      vertex 143.5 400 -37.5
    endloop
  endfacet
  facet normal 0 0 1
    outer loop
      vertex 215 400 -37.5
      vertex 176.5 574 -37.5
      vertex 176.5 400 -37.5
    endloop
  endfacet
  facet normal 0 0 1
    outer loop
      vertex 143.5 382 -37.5
      vertex 105 382 -37.5
      vertex 143.5 262 -37.5
    endloop
  endfacet
  facet normal -0 0 1
    outer loop
      vertex 143.5 262 -37.5
      vertex 158.8 259.2 -37.5
      vertex 176.5 262 -37.5
    endloop
  endfacet
  facet normal 0 0 1
    outer loop
      vertex 146.8 259.2 -37.5
      vertex 143.5 262 -37.5
      vertex 146.8 254.2 -37.5
    endloop
  endfacet
  facet normal 0 0 1
    outer loop
      vertex 158.8 259.2 -37.5
      vertex 143.5 262 -37.5
      vertex 146.8 259.2 -37.5
    endloop
  endfacet
  facet normal 0 0 1
    outer loop
      vertex 176.5 262 -37.5
      vertex 215 382 -37.5
      vertex 176.5 382 -37.5
    endloop
  endfacet
  facet normal 0 0 1
    outer loop
      vertex 215 382 -37.5
      vertex 176.5 262 -37.5
      vertex 215 223 -37.5
    endloop
  endfacet
  facet normal 0 0 1
    outer loop
      vertex 158.8 254.2 -37.5
      vertex 176.5 262 -37.5
      vertex 158.8 259.2 -37.5
    endloop
  endfacet
  facet normal 0 0 1
    outer loop
      vertex 176.5 262 -37.5
      vertex 158.8 254.2 -37.5
      vertex 215 223 -37.5
    endloop
  endfacet
  facet normal 0 0 1
    outer loop
      vertex 105 223 -37.5
      vertex 158.8 254.2 -37.5
      vertex 146.8 254.2 -37.5
    endloop
  endfacet
  facet normal 0 0 1
    outer loop
      vertex 158.8 254.2 -37.5
      vertex 105 223 -37.5
      vertex 215 223 -37.5
    endloop
  endfacet
  facet normal 0 0 1
    outer loop
      vertex 143.5 262 -37.5
      vertex 105 223 -37.5
      vertex 146.8 254.2 -37.5
    endloop
  endfacet
  facet normal 0 0 1
    outer loop
      vertex 105 223 -37.5
      vertex 143.5 262 -37.5
      vertex 105 382 -37.5
    endloop
  endfacet
  facet normal 1 -0 0
    outer loop
      vertex 176.5 400 -36.5
      vertex 176.5 574 -37.5
      vertex 176.5 574 -36.5
    endloop
  endfacet
  facet normal 1 0 0
    outer loop
      vertex 176.5 574 -37.5
      vertex 176.5 400 -36.5
      vertex 176.5 400 -37.5
    endloop
  endfacet
  facet normal 1 -0 0
    outer loop
      vertex 176.5 262 -36.5
      vertex 176.5 382 -37.5
      vertex 176.5 382 -36.5
    endloop
  endfacet
  facet normal 1 0 0
    outer loop
      vertex 176.5 382 -37.5
      vertex 176.5 262 -36.5
      vertex 176.5 262 -37.5
    endloop
  endfacet
  facet normal 0 1 -0
    outer loop
      vertex 176.5 574 -37.5
      vertex 143.5 574 -36.5
      vertex 176.5 574 -36.5
    endloop
  endfacet
  facet normal 0 1 0
    outer loop
      vertex 143.5 574 -36.5
      vertex 176.5 574 -37.5
      vertex 143.5 574 -37.5
    endloop
  endfacet
  facet normal 0 -1 0
    outer loop
      vertex 143.5 262 -37.5
      vertex 176.5 262 -36.5
      vertex 143.5 262 -36.5
    endloop
  endfacet
  facet normal 0 -1 -0
    outer loop
      vertex 176.5 262 -36.5
      vertex 143.5 262 -37.5
      vertex 176.5 262 -37.5
    endloop
  endfacet
  facet normal -1 0 0
    outer loop
      vertex 143.5 400 -37.5
      vertex 143.5 574 -36.5
      vertex 143.5 574 -37.5
    endloop
  endfacet
  facet normal -1 -0 0
    outer loop
      vertex 143.5 574 -36.5
      vertex 143.5 400 -37.5
      vertex 143.5 400 -36.5
    endloop
  endfacet
  facet normal -1 0 0
    outer loop
      vertex 143.5 262 -37.5
      vertex 143.5 382 -36.5
      vertex 143.5 382 -37.5
    endloop
  endfacet
  facet normal -1 -0 0
    outer loop
      vertex 143.5 382 -36.5
      vertex 143.5 262 -37.5
      vertex 143.5 262 -36.5
    endloop
  endfacet
  facet normal -0 0 1
    outer loop
      vertex 143.5 574 -36.5
      vertex 176.5 400 -36.5
      vertex 176.5 574 -36.5
    endloop
  endfacet
  facet normal 0 0 1
    outer loop
      vertex 176.5 400 -36.5
      vertex 143.5 574 -36.5
      vertex 143.5 400 -36.5
    endloop
  endfacet
  facet normal -0 0 1
    outer loop
      vertex 143.5 382 -36.5
      vertex 176.5 262 -36.5
      vertex 176.5 382 -36.5
    endloop
  endfacet
  facet normal 0 0 1
    outer loop
      vertex 176.5 262 -36.5
      vertex 143.5 382 -36.5
      vertex 143.5 262 -36.5
    endloop
  endfacet
  facet normal 1 -0 0
    outer loop
      vertex 158.8 254.2 -36.5
      vertex 158.8 259.2 -37.5
      vertex 158.8 259.2 -36.5
    endloop
  endfacet
  facet normal 1 0 0
    outer loop
      vertex 158.8 259.2 -37.5
      vertex 158.8 254.2 -36.5
      vertex 158.8 254.2 -37.5
    endloop
  endfacet
  facet normal 0 1 -0
    outer loop
      vertex 158.8 259.2 -37.5
      vertex 146.8 259.2 -36.5
      vertex 158.8 259.2 -36.5
    endloop
  endfacet
  facet normal 0 1 0
    outer loop
      vertex 146.8 259.2 -36.5
      vertex 158.8 259.2 -37.5
      vertex 146.8 259.2 -37.5
    endloop
  endfacet
  facet normal 0 -1 0
    outer loop
      vertex 146.8 254.2 -37.5
      vertex 158.8 254.2 -36.5
      vertex 146.8 254.2 -36.5
    endloop
  endfacet
  facet normal 0 -1 -0
    outer loop
      vertex 158.8 254.2 -36.5
      vertex 146.8 254.2 -37.5
      vertex 158.8 254.2 -37.5
    endloop
  endfacet
  facet normal -1 0 0
    outer loop
      vertex 146.8 254.2 -37.5
      vertex 146.8 259.2 -36.5
      vertex 146.8 259.2 -37.5
    endloop
  endfacet
  facet normal -1 -0 0
    outer loop
      vertex 146.8 259.2 -36.5
      vertex 146.8 254.2 -37.5
      vertex 146.8 254.2 -36.5
    endloop
  endfacet
  facet normal -0 0 1
    outer loop
      vertex 146.8 259.2 -36.5
      vertex 158.8 254.2 -36.5
      vertex 158.8 259.2 -36.5
    endloop
  endfacet
  facet normal 0 0 1
    outer loop
      vertex 158.8 254.2 -36.5
      vertex 146.8 259.2 -36.5
      vertex 146.8 254.2 -36.5
    endloop
  endfacet
  facet normal 0 0 -1
    outer loop
      vertex 26 23 -129
      vertex 327 37 -129
      vertex 327 23 -129
    endloop
  endfacet
  facet normal -0 0 -1
    outer loop
      vertex 327 37 -129
      vertex 26 23 -129
      vertex 26 37 -129
    endloop
  endfacet
  facet normal -1 0 0
    outer loop
      vertex 26 23 -129
      vertex 26 37 -120
      vertex 26 37 -129
    endloop
  endfacet
  facet normal -1 -0 0
    outer loop
      vertex 26 37 -120
      vertex 26 23 -129
      vertex 26 23 -120
    endloop
  endfacet
  facet normal -1 0 0
    outer loop
      vertex 26 23 -114
      vertex 26 37 9
      vertex 26 37 -114
    endloop
  endfacet
  facet normal -1 -0 0
    outer loop
      vertex 26 37 9
      vertex 26 23 -114
      vertex 26 23 9
    endloop
  endfacet
  facet normal -0 0 1
    outer loop
      vertex 26 37 9
      vertex 327 23 9
      vertex 327 37 9
    endloop
  endfacet
  facet normal 0 0 1
    outer loop
      vertex 327 23 9
      vertex 26 37 9
      vertex 26 23 9
    endloop
  endfacet
  facet normal 0 1 0
    outer loop
      vertex 302 37 0
      vertex 327 37 9
      vertex 320 37 0
    endloop
  endfacet
  facet normal 0 1 0
    outer loop
      vertex 327 37 9
      vertex 320 37 -120
      vertex 320 37 0
    endloop
  endfacet
  facet normal 0 1 -0
    outer loop
      vertex 327 37 -129
      vertex 320 37 -120
      vertex 327 37 9
    endloop
  endfacet
  facet normal 0 1 0
    outer loop
      vertex 26 37 -129
      vertex 320 37 -120
      vertex 327 37 -129
    endloop
  endfacet
  facet normal 0 1 0
    outer loop
      vertex 320 37 -120
      vertex 26 37 -129
      vertex 26 37 -120
    endloop
  endfacet
  facet normal 0 1 0
    outer loop
      vertex 327 37 9
      vertex 302 37 0
      vertex 26 37 9
    endloop
  endfacet
  facet normal 0 1 0
    outer loop
      vertex 26 37 -114
      vertex 302 37 0
      vertex 302 37 -114
    endloop
  endfacet
  facet normal 0 1 0
    outer loop
      vertex 302 37 0
      vertex 26 37 -114
      vertex 26 37 9
    endloop
  endfacet
  facet normal 0 -1 0
    outer loop
      vertex 26 23 -120
      vertex 26 23 -129
      vertex 320 23 -120
    endloop
  endfacet
  facet normal 0 -1 0
    outer loop
      vertex 26 23 9
      vertex 302 23 0
      vertex 327 23 9
    endloop
  endfacet
  facet normal 0 -1 0
    outer loop
      vertex 26 23 -114
      vertex 302 23 0
      vertex 26 23 9
    endloop
  endfacet
  facet normal 0 -1 -0
    outer loop
      vertex 302 23 0
      vertex 26 23 -114
      vertex 302 23 -114
    endloop
  endfacet
  facet normal 0 -1 0
    outer loop
      vertex 320 23 0
      vertex 327 23 9
      vertex 302 23 0
    endloop
  endfacet
  facet normal 0 -1 0
    outer loop
      vertex 320 23 -120
      vertex 327 23 9
      vertex 320 23 0
    endloop
  endfacet
  facet normal 0 -1 0
    outer loop
      vertex 320 23 -120
      vertex 327 23 -129
      vertex 327 23 9
    endloop
  endfacet
  facet normal 0 -1 0
    outer loop
      vertex 327 23 -129
      vertex 320 23 -120
      vertex 26 23 -129
    endloop
  endfacet
  facet normal 1 -0 0
    outer loop
      vertex 327 23 9
      vertex 327 37 -129
      vertex 327 37 9
    endloop
  endfacet
  facet normal 1 0 0
    outer loop
      vertex 327 37 -129
      vertex 327 23 9
      vertex 327 23 -129
    endloop
  endfacet
  facet normal 0 -1 0
    outer loop
      vertex 18 197 -3
      vertex 302 197 0
      vertex 18 197 0
    endloop
  endfacet
  facet normal 0 -1 -0
    outer loop
      vertex 302 197 0
      vertex 18 197 -3
      vertex 302 197 -3
    endloop
  endfacet
  facet normal 0 0 -1
    outer loop
      vertex 18 197 -3
      vertex 302 200 -3
      vertex 302 197 -3
    endloop
  endfacet
  facet normal -0 0 -1
    outer loop
      vertex 302 200 -3
      vertex 18 197 -3
      vertex 18 200 -3
    endloop
  endfacet
endsolid OpenSCAD_Model
